<mxfile host="app.diagrams.net" modified="2023-06-14T03:46:53.327Z" agent="Mozilla/5.0 (Macintosh; Intel Mac OS X 10_15_7) AppleWebKit/537.36 (KHTML, like Gecko) Chrome/114.0.0.0 Safari/537.36 Edg/114.0.1823.37" etag="3gCHWv2Cl34C5Y9Ky7Sf" version="21.3.8" type="github">
  <diagram name="第 1 页" id="wei4iLeqGJbUfJOTISRJ">
    <mxGraphModel dx="1026" dy="585" grid="1" gridSize="10" guides="1" tooltips="1" connect="1" arrows="1" fold="1" page="1" pageScale="1" pageWidth="827" pageHeight="1169" math="0" shadow="0">
      <root>
        <mxCell id="0" />
        <mxCell id="1" parent="0" />
        <mxCell id="koKyIDY2XLjzuLVN2s-3-1" value="" style="shape=image;html=1;verticalAlign=top;verticalLabelPosition=bottom;labelBackgroundColor=#ffffff;imageAspect=0;aspect=fixed;image=https://cdn1.iconfinder.com/data/icons/business-and-finance-20/200/vector_65_02-128.png" vertex="1" parent="1">
          <mxGeometry x="200" y="263" width="70" height="70" as="geometry" />
        </mxCell>
        <mxCell id="koKyIDY2XLjzuLVN2s-3-6" value="" style="shape=image;html=1;verticalAlign=top;verticalLabelPosition=bottom;labelBackgroundColor=#ffffff;imageAspect=0;aspect=fixed;image=https://cdn1.iconfinder.com/data/icons/business-and-finance-20/200/vector_65_02-128.png" vertex="1" parent="1">
          <mxGeometry x="200" y="263" width="47" height="47" as="geometry" />
        </mxCell>
        <mxCell id="koKyIDY2XLjzuLVN2s-3-9" value="" style="shape=image;html=1;verticalAlign=top;verticalLabelPosition=bottom;labelBackgroundColor=#ffffff;imageAspect=0;aspect=fixed;image=https://cdn1.iconfinder.com/data/icons/business-and-finance-20/200/vector_65_02-128.png" vertex="1" parent="1">
          <mxGeometry x="116" y="365" width="70" height="70" as="geometry" />
        </mxCell>
        <mxCell id="koKyIDY2XLjzuLVN2s-3-12" value="" style="shape=image;html=1;verticalAlign=top;verticalLabelPosition=bottom;labelBackgroundColor=#ffffff;imageAspect=0;aspect=fixed;image=https://cdn1.iconfinder.com/data/icons/business-and-finance-20/200/vector_65_02-128.png" vertex="1" parent="1">
          <mxGeometry x="284" y="363" width="70" height="70" as="geometry" />
        </mxCell>
        <mxCell id="koKyIDY2XLjzuLVN2s-3-13" value="" style="image;sketch=0;aspect=fixed;html=1;points=[];align=center;fontSize=12;image=img/lib/mscae/Person.svg;" vertex="1" parent="1">
          <mxGeometry x="510" y="417" width="37" height="50" as="geometry" />
        </mxCell>
      </root>
    </mxGraphModel>
  </diagram>
</mxfile>
